<mxfile host="app.diagrams.net" modified="2023-04-13T01:20:26.271Z" agent="Mozilla/5.0 (Windows NT 10.0; Win64; x64) AppleWebKit/537.36 (KHTML, like Gecko) Chrome/111.0.0.0 Safari/537.36" etag="-3TsavCAtE7PrYyBbxUu" version="21.1.7" type="github">
  <diagram name="페이지-1" id="E2YYRMpUTHghYBo5WnP-">
    <mxGraphModel dx="2261" dy="764" grid="1" gridSize="10" guides="1" tooltips="1" connect="1" arrows="1" fold="1" page="1" pageScale="1" pageWidth="827" pageHeight="1169" math="0" shadow="0">
      <root>
        <mxCell id="0" />
        <mxCell id="1" parent="0" />
        <mxCell id="bMDlSvMrU2rHgZmUBW91-1" value="회원&lt;br&gt;" style="shape=umlActor;verticalLabelPosition=bottom;verticalAlign=top;html=1;outlineConnect=0;" vertex="1" parent="1">
          <mxGeometry x="-130" y="160" width="50" height="100" as="geometry" />
        </mxCell>
        <mxCell id="bMDlSvMrU2rHgZmUBW91-2" value="관리자&lt;br&gt;" style="shape=umlActor;verticalLabelPosition=bottom;verticalAlign=top;html=1;outlineConnect=0;" vertex="1" parent="1">
          <mxGeometry x="-130" y="472" width="50" height="100" as="geometry" />
        </mxCell>
        <mxCell id="bMDlSvMrU2rHgZmUBW91-10" value="&lt;font style=&quot;font-size: 20px;&quot;&gt;회원가입&lt;/font&gt;" style="ellipse;whiteSpace=wrap;html=1;" vertex="1" parent="1">
          <mxGeometry x="120" y="120" width="160" height="70" as="geometry" />
        </mxCell>
        <mxCell id="bMDlSvMrU2rHgZmUBW91-15" value="" style="endArrow=none;html=1;rounded=0;" edge="1" parent="1">
          <mxGeometry width="50" height="50" relative="1" as="geometry">
            <mxPoint x="-50" y="200" as="sourcePoint" />
            <mxPoint x="120" y="160" as="targetPoint" />
          </mxGeometry>
        </mxCell>
        <mxCell id="bMDlSvMrU2rHgZmUBW91-18" value="&lt;font style=&quot;font-size: 20px;&quot;&gt;홈페이지 관리&lt;/font&gt;" style="ellipse;whiteSpace=wrap;html=1;" vertex="1" parent="1">
          <mxGeometry x="110" y="492" width="160" height="70" as="geometry" />
        </mxCell>
        <mxCell id="bMDlSvMrU2rHgZmUBW91-19" value="" style="endArrow=none;html=1;rounded=0;" edge="1" parent="1">
          <mxGeometry width="50" height="50" relative="1" as="geometry">
            <mxPoint x="-40" y="526.5" as="sourcePoint" />
            <mxPoint x="110" y="526.5" as="targetPoint" />
            <Array as="points">
              <mxPoint x="100" y="526.5" />
            </Array>
          </mxGeometry>
        </mxCell>
        <mxCell id="bMDlSvMrU2rHgZmUBW91-20" value="" style="endArrow=none;html=1;rounded=0;entryX=0;entryY=0.5;entryDx=0;entryDy=0;" edge="1" parent="1" target="bMDlSvMrU2rHgZmUBW91-21">
          <mxGeometry width="50" height="50" relative="1" as="geometry">
            <mxPoint x="280" y="154.5" as="sourcePoint" />
            <mxPoint x="340" y="154.5" as="targetPoint" />
          </mxGeometry>
        </mxCell>
        <mxCell id="bMDlSvMrU2rHgZmUBW91-21" value="&lt;font style=&quot;font-size: 20px;&quot;&gt;상품선택&lt;/font&gt;" style="ellipse;whiteSpace=wrap;html=1;" vertex="1" parent="1">
          <mxGeometry x="360" y="120" width="160" height="70" as="geometry" />
        </mxCell>
        <mxCell id="bMDlSvMrU2rHgZmUBW91-22" value="&lt;font style=&quot;font-size: 20px;&quot;&gt;회원관리&lt;/font&gt;" style="ellipse;whiteSpace=wrap;html=1;" vertex="1" parent="1">
          <mxGeometry x="360" y="492" width="160" height="70" as="geometry" />
        </mxCell>
        <mxCell id="bMDlSvMrU2rHgZmUBW91-26" value="" style="endArrow=none;html=1;rounded=0;entryX=0;entryY=0.5;entryDx=0;entryDy=0;" edge="1" parent="1" target="bMDlSvMrU2rHgZmUBW91-22">
          <mxGeometry width="50" height="50" relative="1" as="geometry">
            <mxPoint x="270" y="526.5" as="sourcePoint" />
            <mxPoint x="350" y="527" as="targetPoint" />
          </mxGeometry>
        </mxCell>
        <mxCell id="bMDlSvMrU2rHgZmUBW91-28" value="" style="endArrow=none;html=1;rounded=0;" edge="1" parent="1">
          <mxGeometry width="50" height="50" relative="1" as="geometry">
            <mxPoint x="364" y="239" as="sourcePoint" />
            <mxPoint x="414" y="189" as="targetPoint" />
          </mxGeometry>
        </mxCell>
        <mxCell id="bMDlSvMrU2rHgZmUBW91-29" value="" style="endArrow=none;html=1;rounded=0;" edge="1" parent="1">
          <mxGeometry width="50" height="50" relative="1" as="geometry">
            <mxPoint x="520" y="240" as="sourcePoint" />
            <mxPoint x="480" y="185" as="targetPoint" />
          </mxGeometry>
        </mxCell>
        <mxCell id="bMDlSvMrU2rHgZmUBW91-30" value="&lt;font style=&quot;font-size: 20px;&quot;&gt;사이즈 선택&lt;/font&gt;" style="ellipse;whiteSpace=wrap;html=1;" vertex="1" parent="1">
          <mxGeometry x="290" y="239" width="120" height="80" as="geometry" />
        </mxCell>
        <mxCell id="bMDlSvMrU2rHgZmUBW91-31" value="&lt;font style=&quot;font-size: 20px;&quot;&gt;장바구니 담기&lt;/font&gt;" style="ellipse;whiteSpace=wrap;html=1;" vertex="1" parent="1">
          <mxGeometry x="477" y="236" width="150" height="80" as="geometry" />
        </mxCell>
        <mxCell id="bMDlSvMrU2rHgZmUBW91-32" value="" style="endArrow=none;html=1;rounded=0;" edge="1" parent="1">
          <mxGeometry width="50" height="50" relative="1" as="geometry">
            <mxPoint x="520" y="154.5" as="sourcePoint" />
            <mxPoint x="590" y="154.5" as="targetPoint" />
          </mxGeometry>
        </mxCell>
        <mxCell id="bMDlSvMrU2rHgZmUBW91-33" value="&lt;font style=&quot;font-size: 20px;&quot;&gt;즉시 결재&lt;/font&gt;" style="ellipse;whiteSpace=wrap;html=1;" vertex="1" parent="1">
          <mxGeometry x="590" y="115" width="120" height="80" as="geometry" />
        </mxCell>
        <mxCell id="bMDlSvMrU2rHgZmUBW91-34" value="" style="endArrow=none;html=1;rounded=0;" edge="1" parent="1">
          <mxGeometry width="50" height="50" relative="1" as="geometry">
            <mxPoint x="480" y="360" as="sourcePoint" />
            <mxPoint x="510" y="310" as="targetPoint" />
          </mxGeometry>
        </mxCell>
        <mxCell id="bMDlSvMrU2rHgZmUBW91-35" value="" style="endArrow=none;html=1;rounded=0;" edge="1" parent="1">
          <mxGeometry width="50" height="50" relative="1" as="geometry">
            <mxPoint x="620" y="360" as="sourcePoint" />
            <mxPoint x="590" y="310" as="targetPoint" />
          </mxGeometry>
        </mxCell>
        <mxCell id="bMDlSvMrU2rHgZmUBW91-36" value="&lt;font style=&quot;font-size: 20px;&quot;&gt;장바구니 삭제&lt;/font&gt;" style="ellipse;whiteSpace=wrap;html=1;" vertex="1" parent="1">
          <mxGeometry x="390" y="360" width="140" height="80" as="geometry" />
        </mxCell>
        <mxCell id="bMDlSvMrU2rHgZmUBW91-37" value="&lt;font style=&quot;font-size: 20px;&quot;&gt;결재&lt;/font&gt;" style="ellipse;whiteSpace=wrap;html=1;" vertex="1" parent="1">
          <mxGeometry x="570" y="360" width="140" height="80" as="geometry" />
        </mxCell>
        <mxCell id="bMDlSvMrU2rHgZmUBW91-38" value="" style="endArrow=none;html=1;rounded=0;" edge="1" parent="1">
          <mxGeometry width="50" height="50" relative="1" as="geometry">
            <mxPoint x="370" y="600" as="sourcePoint" />
            <mxPoint x="410" y="560" as="targetPoint" />
          </mxGeometry>
        </mxCell>
        <mxCell id="bMDlSvMrU2rHgZmUBW91-40" value="&lt;font style=&quot;font-size: 20px;&quot;&gt;회원정보&lt;/font&gt;" style="ellipse;whiteSpace=wrap;html=1;" vertex="1" parent="1">
          <mxGeometry x="294" y="600" width="120" height="80" as="geometry" />
        </mxCell>
        <mxCell id="bMDlSvMrU2rHgZmUBW91-42" value="" style="endArrow=none;html=1;rounded=0;" edge="1" parent="1">
          <mxGeometry width="50" height="50" relative="1" as="geometry">
            <mxPoint x="480" y="360" as="sourcePoint" />
            <mxPoint x="510" y="310" as="targetPoint" />
          </mxGeometry>
        </mxCell>
        <mxCell id="bMDlSvMrU2rHgZmUBW91-43" value="&lt;font style=&quot;font-size: 20px;&quot;&gt;장바구니 삭제&lt;/font&gt;" style="ellipse;whiteSpace=wrap;html=1;" vertex="1" parent="1">
          <mxGeometry x="390" y="360" width="140" height="80" as="geometry" />
        </mxCell>
        <mxCell id="bMDlSvMrU2rHgZmUBW91-44" value="" style="endArrow=none;html=1;rounded=0;" edge="1" parent="1">
          <mxGeometry width="50" height="50" relative="1" as="geometry">
            <mxPoint x="480" y="360" as="sourcePoint" />
            <mxPoint x="510" y="310" as="targetPoint" />
          </mxGeometry>
        </mxCell>
        <mxCell id="bMDlSvMrU2rHgZmUBW91-45" value="&lt;font style=&quot;font-size: 20px;&quot;&gt;장바구니 삭제&lt;/font&gt;" style="ellipse;whiteSpace=wrap;html=1;" vertex="1" parent="1">
          <mxGeometry x="390" y="360" width="140" height="80" as="geometry" />
        </mxCell>
        <mxCell id="bMDlSvMrU2rHgZmUBW91-46" value="" style="endArrow=none;html=1;rounded=0;" edge="1" parent="1">
          <mxGeometry width="50" height="50" relative="1" as="geometry">
            <mxPoint x="480" y="360" as="sourcePoint" />
            <mxPoint x="510" y="310" as="targetPoint" />
          </mxGeometry>
        </mxCell>
        <mxCell id="bMDlSvMrU2rHgZmUBW91-47" value="&lt;font style=&quot;font-size: 20px;&quot;&gt;장바구니 삭제&lt;/font&gt;" style="ellipse;whiteSpace=wrap;html=1;" vertex="1" parent="1">
          <mxGeometry x="390" y="360" width="140" height="80" as="geometry" />
        </mxCell>
        <mxCell id="bMDlSvMrU2rHgZmUBW91-48" value="" style="endArrow=none;html=1;rounded=0;" edge="1" parent="1">
          <mxGeometry width="50" height="50" relative="1" as="geometry">
            <mxPoint x="620" y="360" as="sourcePoint" />
            <mxPoint x="590" y="310" as="targetPoint" />
          </mxGeometry>
        </mxCell>
        <mxCell id="bMDlSvMrU2rHgZmUBW91-49" value="" style="endArrow=none;html=1;rounded=0;" edge="1" parent="1">
          <mxGeometry width="50" height="50" relative="1" as="geometry">
            <mxPoint x="480" y="360" as="sourcePoint" />
            <mxPoint x="510" y="310" as="targetPoint" />
          </mxGeometry>
        </mxCell>
        <mxCell id="bMDlSvMrU2rHgZmUBW91-50" value="&lt;font style=&quot;font-size: 20px;&quot;&gt;장바구니 삭제&lt;/font&gt;" style="ellipse;whiteSpace=wrap;html=1;" vertex="1" parent="1">
          <mxGeometry x="390" y="360" width="140" height="80" as="geometry" />
        </mxCell>
        <mxCell id="bMDlSvMrU2rHgZmUBW91-51" value="" style="endArrow=none;html=1;rounded=0;" edge="1" parent="1">
          <mxGeometry width="50" height="50" relative="1" as="geometry">
            <mxPoint x="620" y="360" as="sourcePoint" />
            <mxPoint x="590" y="310" as="targetPoint" />
          </mxGeometry>
        </mxCell>
        <mxCell id="bMDlSvMrU2rHgZmUBW91-52" value="" style="endArrow=none;html=1;rounded=0;" edge="1" parent="1">
          <mxGeometry width="50" height="50" relative="1" as="geometry">
            <mxPoint x="480" y="360" as="sourcePoint" />
            <mxPoint x="510" y="310" as="targetPoint" />
          </mxGeometry>
        </mxCell>
        <mxCell id="bMDlSvMrU2rHgZmUBW91-53" value="&lt;font style=&quot;font-size: 20px;&quot;&gt;장바구니 삭제&lt;/font&gt;" style="ellipse;whiteSpace=wrap;html=1;" vertex="1" parent="1">
          <mxGeometry x="390" y="360" width="140" height="80" as="geometry" />
        </mxCell>
        <mxCell id="bMDlSvMrU2rHgZmUBW91-54" value="" style="endArrow=none;html=1;rounded=0;" edge="1" parent="1">
          <mxGeometry width="50" height="50" relative="1" as="geometry">
            <mxPoint x="620" y="360" as="sourcePoint" />
            <mxPoint x="590" y="310" as="targetPoint" />
          </mxGeometry>
        </mxCell>
        <mxCell id="bMDlSvMrU2rHgZmUBW91-55" value="" style="endArrow=none;html=1;rounded=0;" edge="1" parent="1">
          <mxGeometry width="50" height="50" relative="1" as="geometry">
            <mxPoint x="288" y="722" as="sourcePoint" />
            <mxPoint x="318" y="672" as="targetPoint" />
          </mxGeometry>
        </mxCell>
        <mxCell id="bMDlSvMrU2rHgZmUBW91-56" value="&lt;font style=&quot;font-size: 20px;&quot;&gt;회원정보 삭제&lt;/font&gt;" style="ellipse;whiteSpace=wrap;html=1;" vertex="1" parent="1">
          <mxGeometry x="200" y="720" width="140" height="80" as="geometry" />
        </mxCell>
        <mxCell id="bMDlSvMrU2rHgZmUBW91-57" value="" style="endArrow=none;html=1;rounded=0;" edge="1" parent="1">
          <mxGeometry width="50" height="50" relative="1" as="geometry">
            <mxPoint x="428" y="718" as="sourcePoint" />
            <mxPoint x="398" y="668" as="targetPoint" />
          </mxGeometry>
        </mxCell>
        <mxCell id="bMDlSvMrU2rHgZmUBW91-58" value="&lt;font style=&quot;font-size: 20px;&quot;&gt;회원정보 추가&lt;/font&gt;" style="ellipse;whiteSpace=wrap;html=1;" vertex="1" parent="1">
          <mxGeometry x="380" y="710" width="140" height="80" as="geometry" />
        </mxCell>
        <mxCell id="bMDlSvMrU2rHgZmUBW91-59" value="" style="endArrow=none;html=1;rounded=0;" edge="1" parent="1" target="bMDlSvMrU2rHgZmUBW91-60">
          <mxGeometry width="50" height="50" relative="1" as="geometry">
            <mxPoint x="415" y="640" as="sourcePoint" />
            <mxPoint x="490" y="640" as="targetPoint" />
          </mxGeometry>
        </mxCell>
        <mxCell id="bMDlSvMrU2rHgZmUBW91-60" value="&lt;font style=&quot;font-size: 20px;&quot;&gt;회원정보 변경&lt;/font&gt;" style="ellipse;whiteSpace=wrap;html=1;" vertex="1" parent="1">
          <mxGeometry x="500" y="600" width="140" height="80" as="geometry" />
        </mxCell>
        <mxCell id="bMDlSvMrU2rHgZmUBW91-61" value="" style="endArrow=none;html=1;rounded=0;" edge="1" parent="1" target="bMDlSvMrU2rHgZmUBW91-62">
          <mxGeometry width="50" height="50" relative="1" as="geometry">
            <mxPoint x="134" y="553" as="sourcePoint" />
            <mxPoint x="184" y="503" as="targetPoint" />
          </mxGeometry>
        </mxCell>
        <mxCell id="bMDlSvMrU2rHgZmUBW91-62" value="&lt;font style=&quot;font-size: 20px;&quot;&gt;상품정보&lt;/font&gt;" style="ellipse;whiteSpace=wrap;html=1;" vertex="1" parent="1">
          <mxGeometry x="14" y="593" width="120" height="80" as="geometry" />
        </mxCell>
        <mxCell id="bMDlSvMrU2rHgZmUBW91-63" value="" style="endArrow=none;html=1;rounded=0;" edge="1" parent="1">
          <mxGeometry width="50" height="50" relative="1" as="geometry">
            <mxPoint x="-20" y="710" as="sourcePoint" />
            <mxPoint x="30" y="660" as="targetPoint" />
          </mxGeometry>
        </mxCell>
        <mxCell id="bMDlSvMrU2rHgZmUBW91-64" value="&lt;font style=&quot;font-size: 20px;&quot;&gt;상품 사이즈&lt;/font&gt;" style="ellipse;whiteSpace=wrap;html=1;" vertex="1" parent="1">
          <mxGeometry x="-110" y="700" width="120" height="80" as="geometry" />
        </mxCell>
        <mxCell id="bMDlSvMrU2rHgZmUBW91-65" value="" style="endArrow=none;html=1;rounded=0;" edge="1" parent="1">
          <mxGeometry width="50" height="50" relative="1" as="geometry">
            <mxPoint x="86" y="671" as="sourcePoint" />
            <mxPoint x="83" y="721" as="targetPoint" />
          </mxGeometry>
        </mxCell>
        <mxCell id="bMDlSvMrU2rHgZmUBW91-66" value="&lt;font style=&quot;font-size: 20px;&quot;&gt;상품 가격&lt;/font&gt;" style="ellipse;whiteSpace=wrap;html=1;" vertex="1" parent="1">
          <mxGeometry x="20" y="720" width="120" height="80" as="geometry" />
        </mxCell>
        <mxCell id="bMDlSvMrU2rHgZmUBW91-68" value="" style="endArrow=none;html=1;rounded=0;" edge="1" parent="1">
          <mxGeometry width="50" height="50" relative="1" as="geometry">
            <mxPoint x="-70" y="640" as="sourcePoint" />
            <mxPoint x="14" y="630" as="targetPoint" />
          </mxGeometry>
        </mxCell>
        <mxCell id="bMDlSvMrU2rHgZmUBW91-69" value="" style="ellipse;whiteSpace=wrap;html=1;" vertex="1" parent="1">
          <mxGeometry x="-120" y="360" width="120" height="80" as="geometry" />
        </mxCell>
        <mxCell id="bMDlSvMrU2rHgZmUBW91-70" value="" style="ellipse;whiteSpace=wrap;html=1;" vertex="1" parent="1">
          <mxGeometry x="50" y="360" width="120" height="80" as="geometry" />
        </mxCell>
        <mxCell id="bMDlSvMrU2rHgZmUBW91-71" value="&lt;font style=&quot;font-size: 20px;&quot;&gt;즉시 결재&lt;/font&gt;" style="ellipse;whiteSpace=wrap;html=1;" vertex="1" parent="1">
          <mxGeometry x="-190" y="610" width="120" height="80" as="geometry" />
        </mxCell>
        <mxCell id="bMDlSvMrU2rHgZmUBW91-72" value="" style="ellipse;whiteSpace=wrap;html=1;" vertex="1" parent="1">
          <mxGeometry x="50" y="239" width="120" height="80" as="geometry" />
        </mxCell>
        <mxCell id="bMDlSvMrU2rHgZmUBW91-73" value="" style="endArrow=none;html=1;rounded=0;exitX=0.344;exitY=0;exitDx=0;exitDy=0;exitPerimeter=0;" edge="1" parent="1" source="bMDlSvMrU2rHgZmUBW91-18" target="bMDlSvMrU2rHgZmUBW91-70">
          <mxGeometry width="50" height="50" relative="1" as="geometry">
            <mxPoint x="160" y="492" as="sourcePoint" />
            <mxPoint x="210" y="442" as="targetPoint" />
          </mxGeometry>
        </mxCell>
        <mxCell id="bMDlSvMrU2rHgZmUBW91-74" value="" style="endArrow=none;html=1;rounded=0;entryX=0.5;entryY=1;entryDx=0;entryDy=0;" edge="1" parent="1" target="bMDlSvMrU2rHgZmUBW91-72">
          <mxGeometry width="50" height="50" relative="1" as="geometry">
            <mxPoint x="110" y="360" as="sourcePoint" />
            <mxPoint x="160" y="310" as="targetPoint" />
          </mxGeometry>
        </mxCell>
        <mxCell id="bMDlSvMrU2rHgZmUBW91-75" value="" style="endArrow=none;html=1;rounded=0;exitX=0.992;exitY=0.65;exitDx=0;exitDy=0;exitPerimeter=0;" edge="1" parent="1" source="bMDlSvMrU2rHgZmUBW91-69">
          <mxGeometry width="50" height="50" relative="1" as="geometry">
            <mxPoint y="460" as="sourcePoint" />
            <mxPoint x="50" y="410" as="targetPoint" />
          </mxGeometry>
        </mxCell>
      </root>
    </mxGraphModel>
  </diagram>
</mxfile>
